<mxfile host="app.diagrams.net" modified="2023-03-25T23:11:04.628Z" agent="Mozilla/5.0 (Windows NT 10.0; Win64; x64) AppleWebKit/537.36 (KHTML, like Gecko) Chrome/111.0.0.0 Safari/537.36" etag="FNuhgLPtFe-UOpZ-9IX7" version="21.1.1" type="device">
  <diagram name="Page-1" id="8378b5f6-a2b2-b727-a746-972ab9d02e00">
    <mxGraphModel dx="1748" dy="939" grid="1" gridSize="10" guides="1" tooltips="1" connect="0" arrows="1" fold="1" page="1" pageScale="1.5" pageWidth="1169" pageHeight="827" background="none" math="0" shadow="0">
      <root>
        <mxCell id="0" />
        <mxCell id="1" parent="0" />
        <mxCell id="LjCou-56xs30sSRaOHNP-280" value="前半" style="fillColor=#23445D;strokeColor=#FFFFFF;strokeWidth=2;fontColor=#FFFFFF;fontStyle=1" vertex="1" parent="1">
          <mxGeometry x="966.5" y="360" width="73.5" height="20" as="geometry" />
        </mxCell>
        <mxCell id="LjCou-56xs30sSRaOHNP-281" value="前半" style="fillColor=#23445D;strokeColor=#FFFFFF;strokeWidth=2;fontColor=#FFFFFF;fontStyle=1" vertex="1" parent="1">
          <mxGeometry x="1106.5" y="360" width="73.5" height="20" as="geometry" />
        </mxCell>
        <mxCell id="LjCou-56xs30sSRaOHNP-282" value="前半" style="fillColor=#23445D;strokeColor=#FFFFFF;strokeWidth=2;fontColor=#FFFFFF;fontStyle=1" vertex="1" parent="1">
          <mxGeometry x="1246.5" y="360" width="73.5" height="20" as="geometry" />
        </mxCell>
        <mxCell id="LjCou-56xs30sSRaOHNP-283" value="前半" style="fillColor=#23445D;strokeColor=#FFFFFF;strokeWidth=2;fontColor=#FFFFFF;fontStyle=1" vertex="1" parent="1">
          <mxGeometry x="1386.5" y="360" width="73.5" height="20" as="geometry" />
        </mxCell>
        <mxCell id="LjCou-56xs30sSRaOHNP-284" value="後半" style="fillColor=#23445D;strokeColor=#FFFFFF;strokeWidth=2;fontColor=#FFFFFF;fontStyle=1" vertex="1" parent="1">
          <mxGeometry x="1040" y="360" width="66.5" height="20" as="geometry" />
        </mxCell>
        <mxCell id="LjCou-56xs30sSRaOHNP-285" value="後半" style="fillColor=#23445D;strokeColor=#FFFFFF;strokeWidth=2;fontColor=#FFFFFF;fontStyle=1" vertex="1" parent="1">
          <mxGeometry x="1180" y="360" width="66.5" height="20" as="geometry" />
        </mxCell>
        <mxCell id="LjCou-56xs30sSRaOHNP-286" value="後半" style="fillColor=#23445D;strokeColor=#FFFFFF;strokeWidth=2;fontColor=#FFFFFF;fontStyle=1" vertex="1" parent="1">
          <mxGeometry x="1320" y="360" width="66.5" height="20" as="geometry" />
        </mxCell>
        <mxCell id="LjCou-56xs30sSRaOHNP-287" value="後半" style="fillColor=#23445D;strokeColor=#FFFFFF;strokeWidth=2;fontColor=#FFFFFF;fontStyle=1" vertex="1" parent="1">
          <mxGeometry x="1460" y="360" width="66.5" height="20" as="geometry" />
        </mxCell>
        <mxCell id="LjCou-56xs30sSRaOHNP-278" value="前半" style="fillColor=#23445D;strokeColor=#FFFFFF;strokeWidth=2;fontColor=#FFFFFF;fontStyle=1" vertex="1" parent="1">
          <mxGeometry x="826.5" y="360" width="73.5" height="20" as="geometry" />
        </mxCell>
        <mxCell id="LjCou-56xs30sSRaOHNP-279" value="後半" style="fillColor=#23445D;strokeColor=#FFFFFF;strokeWidth=2;fontColor=#FFFFFF;fontStyle=1" vertex="1" parent="1">
          <mxGeometry x="900" y="360" width="66.5" height="20" as="geometry" />
        </mxCell>
        <mxCell id="63" value="1" style="strokeColor=#DEEDFF;fillColor=#CCE5FF;" parent="1" vertex="1">
          <mxGeometry x="86.5" y="380" width="40" height="20" as="geometry" />
        </mxCell>
        <mxCell id="64" value="要件定義" style="align=left;strokeColor=#DEEDFF;fillColor=#CCE5FF;" parent="1" vertex="1">
          <mxGeometry x="126.5" y="380" width="320" height="20" as="geometry" />
        </mxCell>
        <mxCell id="65" value="0.5か月" style="strokeColor=#DEEDFF;fillColor=#CCE5FF;" parent="1" vertex="1">
          <mxGeometry x="446.50000000000176" y="380" width="80.00000000000028" height="20" as="geometry" />
        </mxCell>
        <mxCell id="66" value="3/16" style="strokeColor=#DEEDFF;fillColor=#CCE5FF;" parent="1" vertex="1">
          <mxGeometry x="526.500000000002" y="380" width="80.00000000000028" height="20" as="geometry" />
        </mxCell>
        <mxCell id="67" value="3/31" style="strokeColor=#DEEDFF;fillColor=#CCE5FF;" parent="1" vertex="1">
          <mxGeometry x="606.5000000000016" y="380.0000000000002" width="80.00000000000028" height="20" as="geometry" />
        </mxCell>
        <mxCell id="68" value="" style="strokeColor=#DEEDFF" parent="1" vertex="1">
          <mxGeometry x="686.5" y="380" width="73.5" height="200" as="geometry" />
        </mxCell>
        <mxCell id="69" value="2" style="strokeColor=#DEEDFF;fillColor=#CCE5FF" parent="1" vertex="1">
          <mxGeometry x="86.50000000000026" y="399.9999999999999" width="40" height="20" as="geometry" />
        </mxCell>
        <mxCell id="70" value="基本設計" style="align=left;strokeColor=#DEEDFF;fillColor=#CCE5FF" parent="1" vertex="1">
          <mxGeometry x="126.50000000000026" y="399.9999999999999" width="319.9999999999998" height="20" as="geometry" />
        </mxCell>
        <mxCell id="71" value="1.5か月" style="strokeColor=#DEEDFF;fillColor=#CCE5FF" parent="1" vertex="1">
          <mxGeometry x="446.500000000002" y="399.99999999999983" width="80.00000000000028" height="20" as="geometry" />
        </mxCell>
        <mxCell id="72" value="3/16" style="strokeColor=#DEEDFF;fillColor=#CCE5FF" parent="1" vertex="1">
          <mxGeometry x="526.5000000000023" y="399.99999999999983" width="80.00000000000028" height="20" as="geometry" />
        </mxCell>
        <mxCell id="73" value="4/30" style="strokeColor=#DEEDFF;fillColor=#CCE5FF" parent="1" vertex="1">
          <mxGeometry x="606.5000000000018" y="400.0000000000001" width="80.00000000000028" height="20" as="geometry" />
        </mxCell>
        <mxCell id="74" value="3" style="strokeColor=#DEEDFF" parent="1" vertex="1">
          <mxGeometry x="86.50000000000027" y="419.9999999999998" width="40" height="20" as="geometry" />
        </mxCell>
        <mxCell id="75" value="概念設計" style="align=left;strokeColor=#DEEDFF" parent="1" vertex="1">
          <mxGeometry x="126.50000000000027" y="419.9999999999998" width="319.9999999999997" height="20.000000000000014" as="geometry" />
        </mxCell>
        <mxCell id="76" value="0.5か月" style="strokeColor=#DEEDFF" parent="1" vertex="1">
          <mxGeometry x="446.500000000002" y="419.9999999999997" width="80.00000000000028" height="20" as="geometry" />
        </mxCell>
        <mxCell id="77" value="3/16" style="strokeColor=#DEEDFF" parent="1" vertex="1">
          <mxGeometry x="526.5000000000023" y="419.9999999999997" width="80.00000000000028" height="20" as="geometry" />
        </mxCell>
        <mxCell id="78" value="3/31" style="strokeColor=#DEEDFF" parent="1" vertex="1">
          <mxGeometry x="606.5000000000018" y="420" width="80.00000000000028" height="20" as="geometry" />
        </mxCell>
        <mxCell id="79" value="4" style="strokeColor=#DEEDFF" parent="1" vertex="1">
          <mxGeometry x="86.5" y="440.00000000000017" width="40" height="20" as="geometry" />
        </mxCell>
        <mxCell id="80" value="部分設計" style="align=left;strokeColor=#DEEDFF" parent="1" vertex="1">
          <mxGeometry x="126.5" y="440.00000000000017" width="320" height="20" as="geometry" />
        </mxCell>
        <mxCell id="81" value="1か月" style="strokeColor=#DEEDFF" parent="1" vertex="1">
          <mxGeometry x="446.5000000000017" y="440.0000000000001" width="80.00000000000028" height="20" as="geometry" />
        </mxCell>
        <mxCell id="82" value="4/1" style="strokeColor=#DEEDFF" parent="1" vertex="1">
          <mxGeometry x="526.500000000002" y="440.0000000000001" width="80.00000000000028" height="20" as="geometry" />
        </mxCell>
        <mxCell id="83" value="4/30" style="strokeColor=#DEEDFF" parent="1" vertex="1">
          <mxGeometry x="606.5000000000015" y="440.0000000000004" width="80.00000000000028" height="20" as="geometry" />
        </mxCell>
        <mxCell id="84" value="5" style="strokeColor=#DEEDFF;fillColor=#CCE5FF;" parent="1" vertex="1">
          <mxGeometry x="86.49999999999991" y="460.00000000000017" width="40" height="20" as="geometry" />
        </mxCell>
        <mxCell id="85" value="詳細設計" style="align=left;strokeColor=#DEEDFF;fillColor=#CCE5FF;" parent="1" vertex="1">
          <mxGeometry x="126.49999999999991" y="460.00000000000017" width="320.0000000000001" height="20" as="geometry" />
        </mxCell>
        <mxCell id="86" value="1.5か月" style="strokeColor=#DEEDFF;fillColor=#CCE5FF;" parent="1" vertex="1">
          <mxGeometry x="446.50000000000165" y="460.0000000000001" width="80.00000000000028" height="20" as="geometry" />
        </mxCell>
        <mxCell id="87" value="5/1" style="strokeColor=#DEEDFF;fillColor=#CCE5FF;" parent="1" vertex="1">
          <mxGeometry x="526.5000000000019" y="460.0000000000001" width="80.00000000000028" height="20" as="geometry" />
        </mxCell>
        <mxCell id="88" value="6/12" style="strokeColor=#DEEDFF;fillColor=#CCE5FF;" parent="1" vertex="1">
          <mxGeometry x="606.5000000000015" y="460.0000000000004" width="80.00000000000028" height="20" as="geometry" />
        </mxCell>
        <mxCell id="89" value="6" style="strokeColor=#DEEDFF" parent="1" vertex="1">
          <mxGeometry x="86.4999999999999" y="480.00000000000045" width="40" height="20" as="geometry" />
        </mxCell>
        <mxCell id="90" value="モジュール設計" style="align=left;strokeColor=#DEEDFF" parent="1" vertex="1">
          <mxGeometry x="126.4999999999999" y="480.00000000000045" width="320.0000000000001" height="20" as="geometry" />
        </mxCell>
        <mxCell id="91" value="1か月" style="strokeColor=#DEEDFF" parent="1" vertex="1">
          <mxGeometry x="446.50000000000165" y="480.00000000000034" width="80.00000000000028" height="20" as="geometry" />
        </mxCell>
        <mxCell id="92" value="5/1" style="strokeColor=#DEEDFF" parent="1" vertex="1">
          <mxGeometry x="526.5000000000019" y="480.00000000000034" width="80.00000000000028" height="20" as="geometry" />
        </mxCell>
        <mxCell id="93" value="5/31" style="strokeColor=#DEEDFF" parent="1" vertex="1">
          <mxGeometry x="606.5000000000015" y="480.0000000000007" width="80.00000000000028" height="20" as="geometry" />
        </mxCell>
        <mxCell id="94" value="7" style="strokeColor=#DEEDFF" parent="1" vertex="1">
          <mxGeometry x="86.50000000000063" y="500.0000000000007" width="40" height="20" as="geometry" />
        </mxCell>
        <mxCell id="95" value="システム設計" style="align=left;strokeColor=#DEEDFF" parent="1" vertex="1">
          <mxGeometry x="126.50000000000063" y="500.0000000000007" width="319.9999999999994" height="20" as="geometry" />
        </mxCell>
        <mxCell id="96" value="0.5か月" style="strokeColor=#DEEDFF" parent="1" vertex="1">
          <mxGeometry x="446.5000000000024" y="500.0000000000007" width="80.00000000000028" height="20" as="geometry" />
        </mxCell>
        <mxCell id="97" value="6/1" style="strokeColor=#DEEDFF" parent="1" vertex="1">
          <mxGeometry x="526.5000000000027" y="500.0000000000007" width="80.00000000000028" height="20" as="geometry" />
        </mxCell>
        <mxCell id="98" value="6/12" style="strokeColor=#DEEDFF" parent="1" vertex="1">
          <mxGeometry x="606.5000000000022" y="500.0000000000009" width="80.00000000000028" height="20" as="geometry" />
        </mxCell>
        <mxCell id="99" value="8" style="strokeColor=#DEEDFF" parent="1" vertex="1">
          <mxGeometry x="86.50000000000064" y="520.0000000000006" width="40" height="20" as="geometry" />
        </mxCell>
        <mxCell id="100" value="基板設計" style="align=left;strokeColor=#DEEDFF" parent="1" vertex="1">
          <mxGeometry x="126.50000000000064" y="520.0000000000006" width="319.9999999999994" height="20" as="geometry" />
        </mxCell>
        <mxCell id="101" value="0.5か月" style="strokeColor=#DEEDFF" parent="1" vertex="1">
          <mxGeometry x="446.5000000000024" y="520.0000000000006" width="80.00000000000028" height="20" as="geometry" />
        </mxCell>
        <mxCell id="102" value="6/1" style="strokeColor=#DEEDFF" parent="1" vertex="1">
          <mxGeometry x="526.5000000000027" y="520.0000000000006" width="80.00000000000028" height="20" as="geometry" />
        </mxCell>
        <mxCell id="103" value="6/12" style="strokeColor=#DEEDFF" parent="1" vertex="1">
          <mxGeometry x="606.5000000000022" y="520.0000000000008" width="80.00000000000028" height="20" as="geometry" />
        </mxCell>
        <mxCell id="104" value="9" style="strokeColor=#DEEDFF;fillColor=#CCE5FF" parent="1" vertex="1">
          <mxGeometry x="86.50000000000037" y="540.000000000001" width="40" height="20" as="geometry" />
        </mxCell>
        <mxCell id="105" value="基板製造" style="align=left;strokeColor=#DEEDFF;fillColor=#CCE5FF" parent="1" vertex="1">
          <mxGeometry x="126.50000000000037" y="540.000000000001" width="319.99999999999966" height="20.00000000000003" as="geometry" />
        </mxCell>
        <mxCell id="106" value="0.5か月" style="strokeColor=#DEEDFF;fillColor=#CCE5FF" parent="1" vertex="1">
          <mxGeometry x="446.5000000000021" y="540.0000000000009" width="80.00000000000028" height="20" as="geometry" />
        </mxCell>
        <mxCell id="107" value="6/12" style="strokeColor=#DEEDFF;fillColor=#CCE5FF" parent="1" vertex="1">
          <mxGeometry x="526.5000000000025" y="540.0000000000009" width="80.00000000000028" height="20" as="geometry" />
        </mxCell>
        <mxCell id="108" value="8/14" style="strokeColor=#DEEDFF;fillColor=#CCE5FF" parent="1" vertex="1">
          <mxGeometry x="606.5000000000018" y="540.0000000000013" width="80.00000000000028" height="20" as="geometry" />
        </mxCell>
        <mxCell id="109" value="10" style="strokeColor=#DEEDFF;fillColor=#CCE5FF;" parent="1" vertex="1">
          <mxGeometry x="86.50000000000028" y="560.000000000001" width="40" height="20" as="geometry" />
        </mxCell>
        <mxCell id="110" value="動作試験" style="align=left;strokeColor=#DEEDFF;fillColor=#CCE5FF;" parent="1" vertex="1">
          <mxGeometry x="126.50000000000028" y="560.000000000001" width="319.9999999999997" height="20" as="geometry" />
        </mxCell>
        <mxCell id="111" value="0.5か月" style="strokeColor=#DEEDFF;fillColor=#CCE5FF;" parent="1" vertex="1">
          <mxGeometry x="446.50000000000205" y="560.0000000000009" width="80.00000000000028" height="20" as="geometry" />
        </mxCell>
        <mxCell id="112" value="6/12" style="strokeColor=#DEEDFF;fillColor=#CCE5FF;" parent="1" vertex="1">
          <mxGeometry x="526.5000000000023" y="560.0000000000009" width="80.00000000000028" height="20" as="geometry" />
        </mxCell>
        <mxCell id="113" value="8/14" style="strokeColor=#DEEDFF;fillColor=#CCE5FF;" parent="1" vertex="1">
          <mxGeometry x="606.5000000000018" y="560.0000000000013" width="80.00000000000028" height="20" as="geometry" />
        </mxCell>
        <mxCell id="199" value="" style="strokeColor=#DEEDFF;fillColor=#D4E1FF" parent="1" vertex="1">
          <mxGeometry x="760" y="380" width="66.5" height="200" as="geometry" />
        </mxCell>
        <mxCell id="200" value="" style="strokeColor=#DEEDFF" parent="1" vertex="1">
          <mxGeometry x="826.5" y="380" width="73.5" height="200" as="geometry" />
        </mxCell>
        <mxCell id="206" value="" style="strokeColor=#DEEDFF;fillColor=#D4E1FF" parent="1" vertex="1">
          <mxGeometry x="900" y="380" width="66.5" height="200" as="geometry" />
        </mxCell>
        <mxCell id="207" value="" style="strokeColor=#DEEDFF" parent="1" vertex="1">
          <mxGeometry x="966.5" y="380" width="73.5" height="200" as="geometry" />
        </mxCell>
        <mxCell id="213" value="" style="strokeColor=#DEEDFF;fillColor=#D4E1FF" parent="1" vertex="1">
          <mxGeometry x="1040" y="380" width="66.5" height="200" as="geometry" />
        </mxCell>
        <mxCell id="214" value="" style="strokeColor=#DEEDFF" parent="1" vertex="1">
          <mxGeometry x="1106.5" y="380" width="73.5" height="200" as="geometry" />
        </mxCell>
        <mxCell id="220" value="" style="strokeColor=#DEEDFF;fillColor=#D4E1FF" parent="1" vertex="1">
          <mxGeometry x="1180" y="380" width="66.5" height="200" as="geometry" />
        </mxCell>
        <mxCell id="221" value="" style="strokeColor=#DEEDFF" parent="1" vertex="1">
          <mxGeometry x="1246.5" y="380" width="73.5" height="200" as="geometry" />
        </mxCell>
        <mxCell id="227" value="" style="strokeColor=#DEEDFF;fillColor=#D4E1FF" parent="1" vertex="1">
          <mxGeometry x="1320" y="380" width="66.5" height="200" as="geometry" />
        </mxCell>
        <mxCell id="228" value="" style="strokeColor=#DEEDFF" parent="1" vertex="1">
          <mxGeometry x="1386.5" y="380" width="73.5" height="200" as="geometry" />
        </mxCell>
        <mxCell id="234" value="" style="strokeColor=#DEEDFF;fillColor=#D4E1FF" parent="1" vertex="1">
          <mxGeometry x="1460" y="380" width="66.5" height="200" as="geometry" />
        </mxCell>
        <mxCell id="2" value="工程" style="fillColor=#23445D;strokeColor=#FFFFFF;strokeWidth=2;fontColor=#FFFFFF;fontStyle=1" parent="1" vertex="1">
          <mxGeometry x="126.5" y="340" width="320" height="40" as="geometry" />
        </mxCell>
        <mxCell id="3" value="" style="fillColor=#23445D;strokeColor=#FFFFFF;strokeWidth=2;fontColor=#FFFFFF;fontStyle=1" parent="1" vertex="1">
          <mxGeometry x="86.5" y="340" width="40" height="40" as="geometry" />
        </mxCell>
        <mxCell id="4" value="3月" style="fillColor=#23445D;strokeColor=#FFFFFF;strokeWidth=2;fontColor=#FFFFFF;fontStyle=1" parent="1" vertex="1">
          <mxGeometry x="686.5000000000018" y="340.0000000000001" width="140" height="20" as="geometry" />
        </mxCell>
        <mxCell id="5" value="前半" style="fillColor=#23445D;strokeColor=#FFFFFF;strokeWidth=2;fontColor=#FFFFFF;fontStyle=1" parent="1" vertex="1">
          <mxGeometry x="686.5" y="360" width="73.5" height="20" as="geometry" />
        </mxCell>
        <mxCell id="11" value="後半" style="fillColor=#23445D;strokeColor=#FFFFFF;strokeWidth=2;fontColor=#FFFFFF;fontStyle=1" parent="1" vertex="1">
          <mxGeometry x="760" y="360" width="66.5" height="20" as="geometry" />
        </mxCell>
        <mxCell id="12" value="期間" style="fillColor=#23445D;strokeColor=#FFFFFF;strokeWidth=2;fontColor=#FFFFFF;fontStyle=1" parent="1" vertex="1">
          <mxGeometry x="446.50000000000176" y="340.00000000000006" width="80.00000000000006" height="40.00000000000001" as="geometry" />
        </mxCell>
        <mxCell id="13" value="開始" style="fillColor=#23445D;strokeColor=#FFFFFF;strokeWidth=2;fontColor=#FFFFFF;fontStyle=1" parent="1" vertex="1">
          <mxGeometry x="526.5000000000018" y="340.00000000000006" width="80.00000000000006" height="40.00000000000001" as="geometry" />
        </mxCell>
        <mxCell id="14" value="期限" style="fillColor=#23445D;strokeColor=#FFFFFF;strokeWidth=2;fontColor=#FFFFFF;fontStyle=1" parent="1" vertex="1">
          <mxGeometry x="606.5000000000019" y="340.0000000000001" width="80.00000000000006" height="40.00000000000001" as="geometry" />
        </mxCell>
        <mxCell id="15" value="4月" style="fillColor=#23445D;strokeColor=#FFFFFF;strokeWidth=2;fontColor=#FFFFFF;fontStyle=1" parent="1" vertex="1">
          <mxGeometry x="826.5000000000018" y="340.0000000000001" width="140" height="20" as="geometry" />
        </mxCell>
        <mxCell id="23" value="5月" style="fillColor=#23445D;strokeColor=#FFFFFF;strokeWidth=2;fontColor=#FFFFFF;fontStyle=1" parent="1" vertex="1">
          <mxGeometry x="966.5000000000018" y="340.00000000000006" width="140" height="20" as="geometry" />
        </mxCell>
        <mxCell id="31" value="6月" style="fillColor=#23445D;strokeColor=#FFFFFF;strokeWidth=2;fontColor=#FFFFFF;fontStyle=1" parent="1" vertex="1">
          <mxGeometry x="1106.5000000000018" y="340.00000000000006" width="140" height="20" as="geometry" />
        </mxCell>
        <mxCell id="39" value="7月" style="fillColor=#23445D;strokeColor=#FFFFFF;strokeWidth=2;fontColor=#FFFFFF;fontStyle=1" parent="1" vertex="1">
          <mxGeometry x="1246.5000000000018" y="340.00000000000006" width="140" height="20" as="geometry" />
        </mxCell>
        <mxCell id="47" value="8月" style="fillColor=#23445D;strokeColor=#FFFFFF;strokeWidth=2;fontColor=#FFFFFF;fontStyle=1" parent="1" vertex="1">
          <mxGeometry x="1386.5000000000018" y="340" width="140" height="20" as="geometry" />
        </mxCell>
        <mxCell id="242" value="" style="shape=mxgraph.flowchart.process;fillColor=#AE4132;strokeColor=#000000;strokeWidth=2;" parent="1" vertex="1">
          <mxGeometry x="760" y="400" width="207" height="20" as="geometry" />
        </mxCell>
        <mxCell id="243" value="" style="shape=mxgraph.arrows.bent_right_arrow;fillColor=#AE4132;strokeColor=none;strokeWidth=2;direction=south" parent="1" vertex="1">
          <mxGeometry x="827.000000000002" y="429.99999999999966" width="10.000000000000341" height="9.99999999999983" as="geometry" />
        </mxCell>
        <mxCell id="244" value="" style="shape=mxgraph.flowchart.process;fillColor=#AE4132;strokeColor=none;strokeWidth=2;opacity=50" parent="1" vertex="1">
          <mxGeometry x="760" y="420" width="67" height="20" as="geometry" />
        </mxCell>
        <mxCell id="245" value="" style="shape=mxgraph.flowchart.process;fillColor=#AE4132;strokeColor=none;strokeWidth=2;opacity=50" parent="1" vertex="1">
          <mxGeometry x="827" y="440" width="140" height="20" as="geometry" />
        </mxCell>
        <mxCell id="246" value="" style="shape=mxgraph.flowchart.process;fillColor=#AE4132;strokeColor=default;strokeWidth=2;" parent="1" vertex="1">
          <mxGeometry x="967" y="460" width="213" height="20" as="geometry" />
        </mxCell>
        <mxCell id="247" value="" style="shape=mxgraph.flowchart.process;fillColor=#AE4132;strokeColor=none;strokeWidth=2;opacity=50" parent="1" vertex="1">
          <mxGeometry x="1107" y="500" width="73" height="20" as="geometry" />
        </mxCell>
        <mxCell id="248" value="" style="shape=mxgraph.flowchart.process;fillColor=#AE4132;strokeColor=none;strokeWidth=2;opacity=50" parent="1" vertex="1">
          <mxGeometry x="1107" y="520" width="73" height="20" as="geometry" />
        </mxCell>
        <mxCell id="252" value="" style="shape=mxgraph.flowchart.process;fillColor=#AE4132;strokeColor=none;strokeWidth=2;opacity=50" parent="1" vertex="1">
          <mxGeometry x="966.5" y="480" width="140" height="20" as="geometry" />
        </mxCell>
        <mxCell id="253" value="" style="shape=mxgraph.arrows.bent_right_arrow;fillColor=#AE4132;strokeColor=none;strokeWidth=2;direction=south" parent="1" vertex="1">
          <mxGeometry x="1106.500000000002" y="489.99999999999983" width="10.000000000000341" height="9.99999999999983" as="geometry" />
        </mxCell>
        <mxCell id="254" value="" style="shape=mxgraph.flowchart.process;fillColor=#AE4132;strokeColor=#000000;strokeWidth=2;opacity=100" parent="1" vertex="1">
          <mxGeometry x="760" y="380" width="67" height="20" as="geometry" />
        </mxCell>
        <mxCell id="255" value="" style="shape=mxgraph.flowchart.process;fillColor=#AE4132;strokeColor=default;strokeWidth=2;" parent="1" vertex="1">
          <mxGeometry x="1210" y="560" width="67" height="20" as="geometry" />
        </mxCell>
        <mxCell id="256" value="" style="shape=mxgraph.flowchart.process;fillColor=#AE4132;strokeColor=#000000;strokeWidth=2;" parent="1" vertex="1">
          <mxGeometry x="1180" y="540" width="67" height="20" as="geometry" />
        </mxCell>
        <mxCell id="LjCou-56xs30sSRaOHNP-288" value="" style="shape=mxgraph.flowchart.process;fillColor=#AE4132;strokeColor=#000000;strokeWidth=2;" vertex="1" parent="1">
          <mxGeometry x="1246.5" y="540" width="67" height="20" as="geometry" />
        </mxCell>
        <mxCell id="LjCou-56xs30sSRaOHNP-289" value="" style="shape=mxgraph.flowchart.process;fillColor=#AE4132;strokeColor=default;strokeWidth=2;" vertex="1" parent="1">
          <mxGeometry x="1277" y="560" width="67" height="20" as="geometry" />
        </mxCell>
        <mxCell id="LjCou-56xs30sSRaOHNP-290" value="" style="shape=mxgraph.flowchart.process;fillColor=#AE4132;strokeColor=#000000;strokeWidth=2;" vertex="1" parent="1">
          <mxGeometry x="1313.5" y="540" width="67" height="20" as="geometry" />
        </mxCell>
        <mxCell id="LjCou-56xs30sSRaOHNP-291" value="" style="shape=mxgraph.flowchart.process;fillColor=#AE4132;strokeColor=default;strokeWidth=2;" vertex="1" parent="1">
          <mxGeometry x="1344" y="560" width="67" height="20" as="geometry" />
        </mxCell>
        <mxCell id="LjCou-56xs30sSRaOHNP-292" value="FMまで繰り返し" style="text;html=1;strokeColor=none;fillColor=none;align=center;verticalAlign=middle;whiteSpace=wrap;rounded=0;" vertex="1" parent="1">
          <mxGeometry x="1233.25" y="525" width="100" height="10" as="geometry" />
        </mxCell>
      </root>
    </mxGraphModel>
  </diagram>
</mxfile>
